<mxfile host="app.diagrams.net" modified="2023-06-19T20:44:44.059Z" agent="Mozilla/5.0 (Macintosh; Intel Mac OS X 10_15_7) AppleWebKit/605.1.15 (KHTML, like Gecko) Version/16.5 Safari/605.1.15" version="21.5.0" etag="umnS7GhyA8YCbKzRTCpk" type="github">
  <diagram name="Page-1" id="aOtKrea6R4mev-bLFZAL">
    <mxGraphModel>
      <root>
        <mxCell id="0" />
        <mxCell id="1" parent="0" />
      </root>
    </mxGraphModel>
  </diagram>
</mxfile>
